<svg xmlns="http://www.w3.org/2000/svg" version="1.0" preserveAspectRatio="xMidYMid meet" viewBox="233.15 286.09 542.85 335.31">

<g transform="translate(0.000000,969.000000) scale(0.100000,-0.100000)" fill="#000000" stroke="none">
<path d="M6130 6823 c-61 -10 -418 -79 -670 -128 -380 -74 -990 -192 -1395 -270 -375 -72 -398 -80 -462 -163 -52 -69 -63 -123 -63 -314 0 -92 -3 -168 -7 -168 -5 0 -146 -20 -315 -45 -330 -48 -398 -66 -497 -131 -123 -82 -206 -181 -281 -336 -74 -152 -101 -268 -107 -458 -7 -186 10 -312 62 -466 79 -237 200 -407 369 -518 102 -67 188 -101 296 -117 93 -14 54 -18 540 60 135 22 279 44 320 50 l75 12 525 -177 c493 -167 530 -178 600 -178 65 0 166 23 765 178 380 98 731 188 780 201 214 57 823 213 855 220 94 20 172 84 214 175 l26 55 0 1007 c0 1003 0 1007 -21 1064 -25 67 -84 130 -149 161 -25 11 -101 32 -170 46 -69 14 -213 44 -320 67 -920 193 -887 187 -970 173z m465 -298 c193 -42 430 -92 528 -112 97 -21 177 -41 177 -45 0 -5 -7 -8 -16 -8 -18 0 -403 -82 -1034 -220 -599 -132 -909 -198 -956 -206 -31 -4 -51 -1 -82 15 -23 12 -121 43 -219 70 -98 27 -270 75 -383 106 -235 65 -339 94 -360 102 -17 6 197 48 1740 343 80 15 170 28 200 29 34 0 191 -29 405 -74z m943 -1248 c2 -799 0 -911 -13 -937 -9 -17 -17 -30 -19 -30 -2 0 -145 -37 -318 -81 -172 -45 -407 -106 -523 -136 -458 -118 -1265 -323 -1275 -323 -6 0 -11 329 -12 978 -2 537 -3 978 -2 980 1 1 176 40 390 86 404 87 876 190 1409 306 171 38 321 67 335 67 l25 -2 3 -908z m-3543 783 c99 -28 389 -109 645 -181 412 -115 468 -133 487 -157 l23 -27 0 -981 c0 -1019 1 -1004 -40 -1004 -16 0 -811 258 -819 266 -2 2 18 27 43 55 26 29 64 81 84 115 33 56 41 64 75 69 111 20 251 138 315 268 113 231 93 536 -50 764 -80 127 -235 233 -366 251 -51 7 -65 14 -83 38 -38 50 -135 139 -195 179 -89 59 -164 86 -263 93 l-86 7 0 131 c0 131 8 164 39 164 6 0 92 -23 191 -50z m-54 -512 c162 -80 293 -270 365 -530 38 -136 44 -344 15 -484 -45 -219 -143 -379 -272 -445 -39 -20 -251 -59 -320 -59 l-26 0 54 108 c180 363 147 867 -80 1202 -17 25 -64 80 -106 122 -41 43 -73 80 -70 82 11 10 234 34 304 33 65 -2 91 -7 136 -29z m-701 -120 c172 -84 301 -259 372 -505 20 -68 23 -101 22 -258 0 -211 -14 -280 -89 -432 -102 -207 -281 -323 -453 -295 -228 38 -405 229 -499 537 -25 84 -27 102 -27 280 l-1 190 38 109 c58 168 134 279 239 349 83 54 130 67 233 64 80 -3 98 -7 165 -39z m1345 -343 c84 -152 92 -343 19 -492 -37 -77 -59 -95 -46 -40 4 17 7 111 7 207 -1 153 -4 189 -27 285 -14 61 -30 119 -34 130 -15 41 47 -28 81 -90z"/>
<path d="M6705 5313 c-292 -74 -416 -110 -432 -125 -29 -27 -38 -80 -18 -117 18 -36 43 -51 85 -51 44 0 810 189 838 207 12 8 30 29 39 48 29 60 -8 126 -77 138 -14 3 -209 -42 -435 -100z"/>
<path d="M6702 4920 c-211 -53 -394 -102 -407 -108 -34 -16 -58 -67 -51 -107 7 -34 38 -69 73 -79 34 -11 851 199 879 225 68 64 18 171 -78 168 -18 0 -205 -45 -416 -99z"/>
<path d="M3040 4989 c-55 -17 -96 -54 -127 -116 -24 -51 -28 -69 -28 -148 0 -109 25 -174 89 -233 107 -99 242 -73 310 60 108 213 -49 494 -244 437z"/>
</g>
</svg>