<svg xmlns="http://www.w3.org/2000/svg" version="1.0" preserveAspectRatio="xMidYMid meet" viewBox="298.21 228.23 413.45 509.6">

<g transform="translate(0.000000,971.000000) scale(0.100000,-0.100000)" fill="#000000" stroke="none">
<path d="M4137 7416 c-55 -20 -116 -65 -143 -106 -51 -77 -54 -100 -54 -434 0 -306 1 -312 24 -362 27 -58 83 -117 141 -147 32 -17 65 -22 165 -27 l125 -5 3 -327 2 -328 -45 -61 c-59 -81 -112 -189 -139 -285 l-21 -78 -245 -169 c-616 -427 -837 -582 -869 -611 -43 -39 -88 -134 -96 -201 -8 -61 -5 -78 85 -460 38 -159 94 -396 124 -525 30 -130 59 -247 64 -260 22 -56 79 -115 216 -224 305 -242 556 -435 588 -452 50 -27 170 -25 225 4 49 26 100 84 114 132 7 22 9 133 7 295 -3 242 -5 263 -25 307 -14 31 -77 105 -182 215 l-161 168 0 206 0 206 116 79 c63 43 154 106 202 139 48 34 135 93 193 134 l107 72 106 -36 c195 -67 386 -68 566 -4 47 17 92 33 100 35 9 3 80 -39 165 -98 83 -57 221 -152 308 -211 l157 -108 0 -211 0 -211 -154 -156 c-84 -86 -162 -174 -173 -196 -35 -68 -43 -137 -43 -359 0 -244 9 -291 65 -349 45 -46 77 -63 137 -72 81 -12 143 8 233 77 305 236 636 503 659 533 45 59 73 132 110 290 19 83 78 335 131 560 108 457 110 472 60 584 -17 36 -44 76 -69 98 -23 21 -199 147 -392 280 -192 134 -432 300 -533 370 l-183 128 -24 83 c-29 101 -88 220 -143 290 l-41 52 2 327 3 328 125 5 c110 5 131 9 176 32 59 31 108 84 138 147 20 44 21 62 21 366 0 306 -1 322 -21 366 -29 63 -83 120 -141 149 l-48 25 -890 2 c-731 2 -897 0 -928 -11z m1741 -278 c18 -18 17 -491 -2 -507 -10 -8 -235 -10 -832 -9 l-819 3 -3 250 c-1 137 0 255 3 262 6 18 1635 19 1653 1z m-483 -804 l25 -6 0 -220 c0 -206 -1 -220 -17 -212 -10 4 -56 21 -103 37 -72 25 -105 30 -215 34 -110 5 -144 2 -219 -16 -49 -12 -109 -30 -134 -41 -24 -11 -46 -20 -48 -20 -7 0 -4 436 2 443 8 8 676 9 709 1z m-162 -679 c254 -87 422 -336 403 -597 -28 -391 -431 -650 -791 -509 -229 89 -377 301 -379 541 -1 168 54 302 173 420 103 101 202 151 346 173 58 9 181 -5 248 -28z m-1009 -816 c25 -91 67 -175 130 -262 31 -43 56 -79 56 -81 0 -2 -135 -97 -301 -212 -166 -115 -311 -222 -322 -239 -21 -29 -22 -41 -25 -335 -2 -213 0 -317 9 -345 9 -31 48 -77 183 -213 l171 -173 3 -160 c2 -87 1 -159 -2 -159 -4 0 -372 286 -563 439 -18 14 -37 37 -42 51 -6 14 -33 126 -61 250 -28 124 -80 347 -116 495 -36 149 -68 291 -71 316 l-5 47 53 39 c30 21 223 156 429 298 206 142 389 269 405 281 17 13 35 23 41 24 6 0 18 -27 28 -61z m1813 -27 c602 -415 777 -540 786 -560 10 -22 -44 -267 -227 -1037 l-21 -89 -145 -114 c-80 -62 -212 -166 -293 -230 -82 -64 -153 -118 -158 -120 -13 -5 -12 284 2 311 6 12 83 94 170 182 95 97 164 175 174 197 12 31 15 90 15 346 0 304 0 310 -22 342 -13 19 -96 84 -188 148 -125 87 -414 290 -438 307 -2 2 20 33 47 69 59 78 126 211 144 285 6 28 15 51 19 51 4 0 65 -40 135 -88z"/>
<path d="M4986 5285 c-44 -16 -91 -57 -113 -100 -25 -48 -20 -136 11 -189 31 -53 107 -96 171 -96 58 0 124 37 160 88 57 83 34 213 -49 270 -61 42 -116 50 -180 27z"/>
</g>
</svg>