<svg xmlns="http://www.w3.org/2000/svg" version="1.0" preserveAspectRatio="xMidYMid meet" viewBox="166.5 130.06 672.5 655.85">

<g transform="translate(0.000000,1024.000000) scale(0.100000,-0.100000)" fill="#000000" stroke="none">
<path d="M4897 8929 c-72 -14 -131 -43 -382 -189 -127 -73 -273 -158 -325 -188 -97 -56 -346 -201 -570 -333 -209 -122 -308 -243 -345 -416 -12 -56 -15 -205 -15 -825 l0 -758 -22 -13 c-77 -45 -212 -124 -333 -194 -77 -45 -232 -135 -345 -200 -113 -65 -306 -177 -429 -248 -308 -178 -385 -255 -444 -440 -22 -70 -22 -73 -22 -835 0 -700 1 -770 18 -829 26 -94 74 -178 142 -246 60 -62 71 -68 510 -315 66 -38 203 -115 305 -173 565 -319 615 -340 785 -341 162 -1 201 14 575 229 173 100 470 270 658 379 189 108 350 200 357 202 12 5 152 -73 1034 -569 336 -189 383 -212 479 -232 98 -20 173 -19 264 4 100 26 93 22 773 410 546 311 595 341 661 406 80 79 116 142 145 253 18 71 19 116 19 826 0 828 1 807 -63 936 -45 90 -131 175 -247 242 -52 30 -315 180 -585 333 -269 153 -545 309 -612 347 l-123 70 0 751 c0 833 0 829 -65 965 -57 121 -140 194 -370 326 -699 403 -864 497 -981 563 -185 103 -301 130 -447 102z m229 -378 c33 -15 79 -40 102 -55 33 -20 397 -231 924 -535 16 -9 28 -18 28 -21 0 -3 -112 -69 -248 -146 -136 -78 -393 -226 -571 -329 -178 -103 -329 -189 -336 -192 -10 -3 -819 452 -1113 628 l-63 37 68 40 c175 101 608 351 793 457 112 65 218 124 235 131 50 22 114 17 181 -15z m-931 -1240 c303 -173 566 -324 586 -337 l37 -23 0 -695 c0 -383 -2 -696 -4 -696 -2 0 -81 44 -176 98 -95 54 -299 170 -453 257 -154 87 -341 193 -415 236 l-135 77 -3 702 c-1 386 1 700 6 698 4 -1 255 -144 557 -317z m2198 -1082 c-5 -4 -82 -50 -173 -102 -733 -420 -993 -567 -1001 -567 -6 0 -8 269 -7 697 l3 697 335 192 c184 105 450 257 590 337 l255 146 3 -697 c1 -383 -1 -699 -5 -703z m-2693 -451 c113 -64 288 -163 390 -220 102 -57 255 -143 340 -191 85 -47 163 -92 174 -100 16 -12 -15 -32 -325 -209 -189 -108 -447 -255 -574 -328 -126 -73 -234 -133 -240 -133 -5 0 -41 18 -80 41 -38 22 -299 169 -580 327 -280 158 -511 288 -512 289 -1 1 109 66 245 143 983 561 915 524 937 509 11 -7 112 -65 225 -128z m3140 -1 c129 -72 298 -167 375 -210 77 -43 233 -131 348 -194 l207 -116 -82 -47 c-604 -342 -1046 -596 -1064 -611 -10 -8 -64 18 -226 109 -117 66 -346 194 -508 284 -162 91 -334 187 -381 213 l-87 49 432 247 c237 135 496 285 576 332 80 47 152 83 160 81 8 -3 121 -64 250 -137z m-4170 -1166 c294 -165 547 -307 563 -315 l27 -15 0 -726 0 -727 -32 20 c-18 11 -213 120 -433 242 -730 406 -710 394 -743 455 -15 27 -17 100 -20 714 -2 377 -1 690 2 698 4 10 17 6 53 -16 26 -16 289 -165 583 -330z m5360 -320 c0 -373 -3 -693 -7 -712 -12 -62 -74 -105 -458 -323 -524 -297 -754 -426 -760 -426 -3 0 -5 326 -5 723 l0 724 236 134 c130 74 404 229 608 346 204 116 374 212 379 212 4 1 7 -304 7 -678z m-2628 550 c95 -54 304 -172 463 -261 160 -89 345 -194 413 -232 l122 -70 0 -704 c0 -387 -2 -704 -5 -704 -3 0 -56 28 -117 63 -371 208 -859 484 -953 539 l-110 63 -3 703 c-1 426 2 702 7 702 5 0 87 -44 183 -99z m-587 -609 c0 -383 -3 -702 -7 -708 -4 -6 -65 -44 -135 -84 -70 -40 -207 -119 -303 -175 -96 -56 -247 -144 -335 -195 -220 -127 -346 -201 -372 -218 l-23 -14 0 713 1 714 52 31 c29 17 237 136 462 264 226 128 462 264 525 301 63 37 120 68 125 68 7 1 10 -238 10 -697z"/>
</g>
</svg>