<svg xmlns="http://www.w3.org/2000/svg" version="1.0" preserveAspectRatio="xMidYMid meet" viewBox="276.08 225.12 490.44 470.81">

<g transform="translate(0.000000,944.000000) scale(0.100000,-0.100000)" fill="#000000" stroke="none">
<path d="M4900 7174 c-228 -61 -408 -239 -470 -468 -18 -66 -21 -100 -19 -215 l3 -136 -120 -195 c-232 -376 -412 -677 -551 -920 -36 -62 -70 -110 -84 -117 -13 -6 -67 -31 -119 -56 -162 -78 -283 -200 -368 -372 -60 -120 -76 -196 -76 -360 -1 -119 3 -152 23 -220 35 -120 79 -207 150 -295 26 -32 26 -46 -4 -209 -43 -229 -30 -202 -107 -207 -172 -12 -308 -108 -369 -261 -22 -54 -24 -76 -27 -310 -3 -218 -1 -256 13 -287 34 -71 -43 -67 1209 -64 l1126 3 32 33 33 32 3 230 c2 132 -1 254 -7 287 -20 108 -82 201 -175 264 -75 50 -141 69 -252 72 l-89 2 -36 135 c-20 74 -47 171 -59 215 l-22 80 37 55 c49 72 80 142 107 243 31 112 30 305 -1 421 -11 44 -21 85 -21 92 0 7 29 73 64 146 76 160 152 317 296 618 59 124 131 279 160 345 29 66 58 126 64 132 6 7 25 15 41 18 27 5 56 -15 295 -207 146 -117 342 -265 435 -328 93 -63 183 -124 199 -135 24 -17 39 -48 88 -185 33 -91 71 -198 86 -239 44 -121 27 -115 392 -119 343 -3 352 -2 390 61 24 38 25 78 5 121 -30 63 -46 66 -313 66 -180 0 -242 3 -249 13 -6 6 -18 37 -28 67 -10 30 -35 103 -57 162 l-39 108 136 200 136 200 268 0 268 0 67 -164 c81 -196 93 -211 178 -211 55 0 62 3 88 32 53 60 51 78 -40 299 -44 110 -86 211 -92 226 -6 15 -25 37 -43 48 -31 19 -49 20 -330 20 l-299 0 -25 29 c-23 26 -572 370 -958 601 -98 58 -143 91 -143 103 0 38 -43 145 -86 214 -84 134 -245 252 -395 288 -81 19 -247 18 -319 -1z m323 -276 c253 -117 314 -452 117 -649 -209 -209 -555 -126 -656 159 -28 79 -30 135 -8 217 29 114 97 203 196 255 82 44 107 50 208 47 67 -3 97 -9 143 -29z m689 -676 c295 -177 628 -385 628 -392 0 -13 -220 -340 -228 -340 -23 0 -316 209 -512 366 -169 135 -244 195 -254 204 -5 5 14 39 43 77 28 37 64 101 79 140 15 40 28 73 29 73 2 0 98 -57 215 -128z m-1279 -193 c83 -69 183 -123 262 -139 30 -6 55 -14 55 -16 0 -9 -145 -320 -260 -559 -40 -82 -101 -210 -136 -284 l-64 -134 -54 51 c-99 94 -231 162 -364 189 -42 8 -78 17 -80 18 -6 5 557 934 566 935 2 0 36 -27 75 -61z m-620 -1145 c185 -42 333 -171 404 -350 24 -62 27 -82 28 -194 0 -114 -2 -131 -29 -198 -69 -178 -223 -307 -412 -347 -87 -18 -121 -18 -209 0 -211 45 -370 193 -430 400 -14 46 -17 84 -13 176 5 104 8 124 36 183 44 93 112 178 185 230 83 58 115 74 200 96 91 23 149 24 240 4z m344 -1356 c18 -62 29 -115 27 -118 -8 -8 -881 -6 -889 2 -4 4 1 50 11 103 14 78 21 95 33 91 9 -3 53 -19 99 -35 198 -73 472 -54 636 44 23 14 43 25 46 25 3 0 20 -51 37 -112z m496 -408 c20 -14 45 -41 54 -60 20 -40 29 -160 18 -256 l-7 -64 -948 0 -948 0 -5 23 c-3 12 -2 83 2 157 8 154 18 181 86 211 38 18 82 19 876 16 l835 -2 37 -25z"/>
<path d="M3814 4511 c-23 -10 -54 -36 -70 -57 -26 -34 -29 -45 -29 -114 0 -68 3 -81 27 -112 67 -88 210 -103 292 -30 53 47 70 154 37 229 -40 87 -164 128 -257 84z"/>
</g>
</svg>